<mxfile host="app.diagrams.net" modified="2024-06-13T00:12:27.312Z" agent="Mozilla/5.0 (Windows NT 10.0; Win64; x64) AppleWebKit/537.36 (KHTML, like Gecko) Chrome/125.0.0.0 Safari/537.36 Edg/125.0.0.0" etag="94lPPc01CDE2PbN6K1-0" version="24.5.4" type="device">
  <diagram name="Página-1" id="CGBMco2gzK2SNp9o2IB2">
    <mxGraphModel dx="1301" dy="721" grid="1" gridSize="10" guides="1" tooltips="1" connect="1" arrows="1" fold="1" page="1" pageScale="1" pageWidth="827" pageHeight="1169" math="0" shadow="0">
      <root>
        <mxCell id="0" />
        <mxCell id="1" parent="0" />
        <mxCell id="OpKFjFTR_b7xUZBTERK8-35" style="edgeStyle=orthogonalEdgeStyle;rounded=0;orthogonalLoop=1;jettySize=auto;html=1;exitX=0.5;exitY=0.5;exitDx=0;exitDy=0;exitPerimeter=0;entryX=0;entryY=0.5;entryDx=0;entryDy=0;" edge="1" parent="1">
          <mxGeometry relative="1" as="geometry">
            <mxPoint x="139" y="255" as="sourcePoint" />
            <mxPoint x="298" y="25" as="targetPoint" />
            <Array as="points">
              <mxPoint x="214" y="255" />
              <mxPoint x="214" y="25" />
            </Array>
          </mxGeometry>
        </mxCell>
        <mxCell id="OpKFjFTR_b7xUZBTERK8-36" style="edgeStyle=orthogonalEdgeStyle;rounded=0;orthogonalLoop=1;jettySize=auto;html=1;exitX=0.5;exitY=0.5;exitDx=0;exitDy=0;exitPerimeter=0;entryX=0;entryY=0.5;entryDx=0;entryDy=0;" edge="1" parent="1" source="OpKFjFTR_b7xUZBTERK8-1">
          <mxGeometry relative="1" as="geometry">
            <mxPoint x="136.5" y="407" as="sourcePoint" />
            <mxPoint x="297.49999999999955" y="637" as="targetPoint" />
            <Array as="points">
              <mxPoint x="215" y="255" />
              <mxPoint x="215" y="637" />
            </Array>
          </mxGeometry>
        </mxCell>
        <mxCell id="OpKFjFTR_b7xUZBTERK8-1" value="Usuário" style="shape=umlActor;verticalLabelPosition=bottom;verticalAlign=top;html=1;outlineConnect=0;" vertex="1" parent="1">
          <mxGeometry x="120" y="225" width="30" height="60" as="geometry" />
        </mxCell>
        <mxCell id="OpKFjFTR_b7xUZBTERK8-2" value="Logar no Sistema" style="ellipse;whiteSpace=wrap;html=1;" vertex="1" parent="1">
          <mxGeometry x="294" y="90" width="120" height="50" as="geometry" />
        </mxCell>
        <mxCell id="OpKFjFTR_b7xUZBTERK8-3" value="Gerenciar Perfil" style="ellipse;whiteSpace=wrap;html=1;" vertex="1" parent="1">
          <mxGeometry x="294" y="190" width="120" height="50" as="geometry" />
        </mxCell>
        <mxCell id="OpKFjFTR_b7xUZBTERK8-49" style="edgeStyle=orthogonalEdgeStyle;rounded=0;orthogonalLoop=1;jettySize=auto;html=1;exitX=1;exitY=0.5;exitDx=0;exitDy=0;entryX=0;entryY=0.5;entryDx=0;entryDy=0;" edge="1" parent="1" source="OpKFjFTR_b7xUZBTERK8-5" target="OpKFjFTR_b7xUZBTERK8-45">
          <mxGeometry relative="1" as="geometry">
            <Array as="points">
              <mxPoint x="430" y="415" />
              <mxPoint x="430" y="335" />
            </Array>
          </mxGeometry>
        </mxCell>
        <mxCell id="OpKFjFTR_b7xUZBTERK8-50" style="edgeStyle=orthogonalEdgeStyle;rounded=0;orthogonalLoop=1;jettySize=auto;html=1;exitX=1;exitY=0.5;exitDx=0;exitDy=0;" edge="1" parent="1" source="OpKFjFTR_b7xUZBTERK8-5" target="OpKFjFTR_b7xUZBTERK8-46">
          <mxGeometry relative="1" as="geometry">
            <Array as="points">
              <mxPoint x="430" y="415" />
              <mxPoint x="430" y="395" />
            </Array>
          </mxGeometry>
        </mxCell>
        <mxCell id="OpKFjFTR_b7xUZBTERK8-51" style="edgeStyle=orthogonalEdgeStyle;rounded=0;orthogonalLoop=1;jettySize=auto;html=1;exitX=1;exitY=0.5;exitDx=0;exitDy=0;" edge="1" parent="1" source="OpKFjFTR_b7xUZBTERK8-5" target="OpKFjFTR_b7xUZBTERK8-47">
          <mxGeometry relative="1" as="geometry">
            <Array as="points">
              <mxPoint x="430" y="415" />
              <mxPoint x="430" y="455" />
            </Array>
          </mxGeometry>
        </mxCell>
        <mxCell id="OpKFjFTR_b7xUZBTERK8-52" style="edgeStyle=orthogonalEdgeStyle;rounded=0;orthogonalLoop=1;jettySize=auto;html=1;exitX=1;exitY=0.5;exitDx=0;exitDy=0;entryX=0;entryY=0.5;entryDx=0;entryDy=0;" edge="1" parent="1" source="OpKFjFTR_b7xUZBTERK8-5" target="OpKFjFTR_b7xUZBTERK8-48">
          <mxGeometry relative="1" as="geometry">
            <Array as="points">
              <mxPoint x="430" y="415" />
              <mxPoint x="430" y="515" />
            </Array>
          </mxGeometry>
        </mxCell>
        <mxCell id="OpKFjFTR_b7xUZBTERK8-5" value="Realizar Lições" style="ellipse;whiteSpace=wrap;html=1;" vertex="1" parent="1">
          <mxGeometry x="294" y="390" width="120" height="50" as="geometry" />
        </mxCell>
        <mxCell id="OpKFjFTR_b7xUZBTERK8-6" value="Visualizar Perfil" style="ellipse;whiteSpace=wrap;html=1;" vertex="1" parent="1">
          <mxGeometry x="450" y="160" width="120" height="50" as="geometry" />
        </mxCell>
        <mxCell id="OpKFjFTR_b7xUZBTERK8-7" value="Atualizar Perfil" style="ellipse;whiteSpace=wrap;html=1;" vertex="1" parent="1">
          <mxGeometry x="450" y="230" width="120" height="50" as="geometry" />
        </mxCell>
        <mxCell id="OpKFjFTR_b7xUZBTERK8-8" value="" style="edgeStyle=elbowEdgeStyle;elbow=horizontal;endArrow=classic;html=1;curved=0;rounded=0;endSize=8;startSize=8;" edge="1" parent="1" source="OpKFjFTR_b7xUZBTERK8-3" target="OpKFjFTR_b7xUZBTERK8-6">
          <mxGeometry width="50" height="50" relative="1" as="geometry">
            <mxPoint x="310" y="300" as="sourcePoint" />
            <mxPoint x="360" y="250" as="targetPoint" />
          </mxGeometry>
        </mxCell>
        <mxCell id="OpKFjFTR_b7xUZBTERK8-9" value="" style="edgeStyle=elbowEdgeStyle;elbow=horizontal;endArrow=classic;html=1;curved=0;rounded=0;endSize=8;startSize=8;" edge="1" parent="1" source="OpKFjFTR_b7xUZBTERK8-3" target="OpKFjFTR_b7xUZBTERK8-7">
          <mxGeometry width="50" height="50" relative="1" as="geometry">
            <mxPoint x="310" y="300" as="sourcePoint" />
            <mxPoint x="360" y="250" as="targetPoint" />
          </mxGeometry>
        </mxCell>
        <mxCell id="OpKFjFTR_b7xUZBTERK8-28" value="" style="edgeStyle=elbowEdgeStyle;elbow=horizontal;endArrow=classic;html=1;curved=0;rounded=0;endSize=8;startSize=8;exitX=0.5;exitY=0.5;exitDx=0;exitDy=0;exitPerimeter=0;" edge="1" parent="1" source="OpKFjFTR_b7xUZBTERK8-1" target="OpKFjFTR_b7xUZBTERK8-5">
          <mxGeometry width="50" height="50" relative="1" as="geometry">
            <mxPoint x="310" y="380" as="sourcePoint" />
            <mxPoint x="360" y="330" as="targetPoint" />
          </mxGeometry>
        </mxCell>
        <mxCell id="OpKFjFTR_b7xUZBTERK8-29" value="" style="edgeStyle=elbowEdgeStyle;elbow=horizontal;endArrow=classic;html=1;curved=0;rounded=0;endSize=8;startSize=8;exitX=0.5;exitY=0.5;exitDx=0;exitDy=0;exitPerimeter=0;" edge="1" parent="1" source="OpKFjFTR_b7xUZBTERK8-1" target="OpKFjFTR_b7xUZBTERK8-3">
          <mxGeometry width="50" height="50" relative="1" as="geometry">
            <mxPoint x="310" y="380" as="sourcePoint" />
            <mxPoint x="360" y="330" as="targetPoint" />
          </mxGeometry>
        </mxCell>
        <mxCell id="OpKFjFTR_b7xUZBTERK8-30" value="" style="edgeStyle=elbowEdgeStyle;elbow=horizontal;endArrow=classic;html=1;curved=0;rounded=0;endSize=8;startSize=8;exitX=0.5;exitY=0.5;exitDx=0;exitDy=0;exitPerimeter=0;" edge="1" parent="1" source="OpKFjFTR_b7xUZBTERK8-1" target="OpKFjFTR_b7xUZBTERK8-2">
          <mxGeometry width="50" height="50" relative="1" as="geometry">
            <mxPoint x="310" y="380" as="sourcePoint" />
            <mxPoint x="300" y="300" as="targetPoint" />
          </mxGeometry>
        </mxCell>
        <mxCell id="OpKFjFTR_b7xUZBTERK8-33" value="Realizar Cadastro" style="ellipse;whiteSpace=wrap;html=1;" vertex="1" parent="1">
          <mxGeometry x="294" width="120" height="50" as="geometry" />
        </mxCell>
        <mxCell id="OpKFjFTR_b7xUZBTERK8-42" style="edgeStyle=orthogonalEdgeStyle;rounded=0;orthogonalLoop=1;jettySize=auto;html=1;exitX=1;exitY=0.5;exitDx=0;exitDy=0;" edge="1" parent="1" source="OpKFjFTR_b7xUZBTERK8-34" target="OpKFjFTR_b7xUZBTERK8-39">
          <mxGeometry relative="1" as="geometry" />
        </mxCell>
        <mxCell id="OpKFjFTR_b7xUZBTERK8-43" style="edgeStyle=orthogonalEdgeStyle;rounded=0;orthogonalLoop=1;jettySize=auto;html=1;exitX=1;exitY=0.5;exitDx=0;exitDy=0;" edge="1" parent="1" source="OpKFjFTR_b7xUZBTERK8-34" target="OpKFjFTR_b7xUZBTERK8-40">
          <mxGeometry relative="1" as="geometry" />
        </mxCell>
        <mxCell id="OpKFjFTR_b7xUZBTERK8-44" style="edgeStyle=orthogonalEdgeStyle;rounded=0;orthogonalLoop=1;jettySize=auto;html=1;exitX=1;exitY=0.5;exitDx=0;exitDy=0;entryX=0;entryY=0.5;entryDx=0;entryDy=0;" edge="1" parent="1" source="OpKFjFTR_b7xUZBTERK8-34" target="OpKFjFTR_b7xUZBTERK8-41">
          <mxGeometry relative="1" as="geometry">
            <Array as="points">
              <mxPoint x="434.5" y="632" />
              <mxPoint x="434.5" y="737" />
            </Array>
          </mxGeometry>
        </mxCell>
        <mxCell id="OpKFjFTR_b7xUZBTERK8-34" value="Dar Feedback" style="ellipse;whiteSpace=wrap;html=1;" vertex="1" parent="1">
          <mxGeometry x="294" y="607" width="120" height="50" as="geometry" />
        </mxCell>
        <mxCell id="OpKFjFTR_b7xUZBTERK8-39" value="Reportar erro" style="ellipse;whiteSpace=wrap;html=1;" vertex="1" parent="1">
          <mxGeometry x="451.5" y="577" width="120" height="50" as="geometry" />
        </mxCell>
        <mxCell id="OpKFjFTR_b7xUZBTERK8-40" value="Informar Pergunta Mal Formulada" style="ellipse;whiteSpace=wrap;html=1;" vertex="1" parent="1">
          <mxGeometry x="451.5" y="642" width="120" height="50" as="geometry" />
        </mxCell>
        <mxCell id="OpKFjFTR_b7xUZBTERK8-41" value="Indicar Resposta Errada" style="ellipse;whiteSpace=wrap;html=1;" vertex="1" parent="1">
          <mxGeometry x="451.5" y="711.5" width="120" height="50" as="geometry" />
        </mxCell>
        <mxCell id="OpKFjFTR_b7xUZBTERK8-45" value="Visualizar Lista de Lições" style="ellipse;whiteSpace=wrap;html=1;" vertex="1" parent="1">
          <mxGeometry x="450" y="310" width="120" height="50" as="geometry" />
        </mxCell>
        <mxCell id="OpKFjFTR_b7xUZBTERK8-46" value="Selecionar Lição" style="ellipse;whiteSpace=wrap;html=1;" vertex="1" parent="1">
          <mxGeometry x="450" y="370" width="120" height="50" as="geometry" />
        </mxCell>
        <mxCell id="OpKFjFTR_b7xUZBTERK8-47" value="Resolver Exercícios" style="ellipse;whiteSpace=wrap;html=1;" vertex="1" parent="1">
          <mxGeometry x="450" y="430" width="120" height="50" as="geometry" />
        </mxCell>
        <mxCell id="OpKFjFTR_b7xUZBTERK8-48" value="Concluir Lição" style="ellipse;whiteSpace=wrap;html=1;" vertex="1" parent="1">
          <mxGeometry x="450" y="490" width="120" height="50" as="geometry" />
        </mxCell>
      </root>
    </mxGraphModel>
  </diagram>
</mxfile>
